<svg version="1.1" id="Layer_1" xmlns="http://www.w3.org/2000/svg" xmlns:xlink="http://www.w3.org/1999/xlink" x="0px" y="0px"
	 width="100%" viewBox="0 0 4990 1110" enable-background="new 0 0 4990 1110" xml:space="preserve">
<path fill="#45556A" opacity="1.000000" stroke="none" 
	d="
M4992.000000,102.000015 
	C4992.000000,405.403168 4992.000000,708.806335 4991.396484,1013.597656 
	C4989.514648,1020.809021 4988.903320,1026.880127 4986.848145,1032.415283 
	C4973.538086,1068.260620 4948.679688,1092.656372 4912.718262,1105.559448 
	C4905.327148,1108.211548 4897.582031,1109.878662 4890.000000,1111.999878 
	C3299.930176,1112.000000 1709.860352,1112.000000 118.095726,1111.999023 
	C111.872398,1111.325439 107.308983,1110.831177 102.820625,1109.953369 
	C44.669773,1098.579468 5.527657,1047.283081 5.589139,991.141663 
	C5.905995,701.809814 5.881381,412.477234 5.619882,123.145226 
	C5.564152,61.483028 53.492775,8.078152 115.378906,3.496045 
	C116.947594,3.379898 118.460876,2.515455 120.000000,2.000000 
	C1708.736450,2.000000 3297.472900,2.000000 4887.433594,2.700688 
	C4889.945801,3.691487 4891.226074,4.018446 4892.521484,4.266451 
	C4939.465820,13.252129 4971.353027,40.064358 4987.746094,85.006035 
	C4989.736816,90.461876 4990.609375,96.325401 4992.000000,102.000015 
M347.000000,267.996887 
	C336.336456,267.996887 325.672882,267.995819 315.009338,267.997131 
	C288.684113,268.000305 262.357635,267.850922 236.034134,268.065521 
	C220.030457,268.195953 209.237411,278.844543 208.244797,294.842896 
	C208.079956,297.499756 208.154495,300.172821 208.154419,302.838379 
	C208.150803,427.799927 208.149857,552.761475 208.158188,677.723022 
	C208.158401,681.054199 208.030212,684.408752 208.361038,687.712402 
	C209.778412,701.866699 219.472763,711.508362 233.654251,712.917114 
	C236.628998,713.212463 239.645187,713.151794 242.642288,713.151917 
	C448.245667,713.161743 653.849060,713.162354 859.452454,713.149292 
	C862.781555,713.149109 866.137878,713.209595 869.435059,712.834045 
	C883.614136,711.219177 893.092834,701.263672 894.053955,687.092712 
	C894.234070,684.437256 894.169189,681.763367 894.169250,679.097961 
	C894.174072,553.469971 894.175171,427.841949 894.165039,302.213959 
	C894.164734,298.883148 894.267456,295.528625 893.928162,292.225647 
	C892.557800,278.885437 882.173706,268.907776 868.837524,268.083801 
	C865.184998,267.858124 861.508728,267.999329 857.843384,267.999268 
	C688.228943,267.996613 518.614441,267.996918 347.000000,267.996887 
M4513.987793,399.000000 
	C4513.987793,438.504364 4513.987793,478.008698 4513.987793,519.282166 
	C4509.502930,516.414062 4506.520508,514.559937 4503.590820,512.625488 
	C4458.011719,482.532196 4408.109375,472.222229 4354.748535,482.812469 
	C4244.460449,504.700775 4175.437500,612.081421 4200.149902,721.883362 
	C4223.645020,826.273499 4330.135742,893.863220 4434.635742,870.711060 
	C4527.161621,850.211731 4591.335938,770.499023 4591.401855,675.725647 
	C4591.484375,557.766113 4591.422363,439.806488 4591.414062,321.846893 
	C4591.414062,318.849854 4591.522949,315.830902 4591.217773,312.859436 
	C4589.343750,294.602875 4576.545410,280.500366 4559.501465,277.765564 
	C4534.993164,273.833099 4514.312988,291.030518 4514.059570,316.028381 
	C4513.786133,343.016418 4513.991211,370.009247 4513.987793,399.000000 
M4124.663574,579.356812 
	C4139.911621,554.694519 4121.701660,521.239563 4090.662109,523.209778 
	C4074.726318,524.221191 4058.673340,523.421082 4042.673828,523.349976 
	C4039.828857,523.337341 4036.986084,522.884521 4033.562744,522.584106 
	C4033.562744,504.219086 4033.071289,486.588684 4033.670410,468.995422 
	C4034.753418,437.187653 4047.437744,410.254639 4070.177734,388.215515 
	C4093.237549,365.866486 4121.183594,355.075867 4153.216797,354.261078 
	C4176.213867,353.676208 4192.410156,336.970428 4192.020996,314.751617 
	C4191.646484,293.387665 4174.711426,277.179871 4152.267578,277.102295 
	C4144.619141,277.075867 4136.914551,277.497253 4129.325684,278.440735 
	C4030.012695,290.787079 3956.007080,374.871216 3955.991455,475.266754 
	C3955.972900,593.599976 3955.985840,711.933167 3955.988770,830.266418 
	C3955.988770,833.266113 3955.883545,836.274353 3956.065918,839.264038 
	C3957.243896,858.586426 3972.761963,873.809875 3992.565430,875.148254 
	C4010.949951,876.390625 4028.288574,863.417419 4032.093018,845.189026 
	C4033.103516,840.347717 4033.362549,835.276184 4033.367920,830.309692 
	C4033.445068,756.643188 4033.422119,682.976562 4033.422363,609.309998 
	C4033.422363,605.401978 4033.422119,601.493896 4033.422119,596.615356 
	C4037.873047,596.615356 4041.124023,596.615540 4044.375000,596.615417 
	C4060.041748,596.614624 4075.712158,596.395325 4091.373779,596.678528 
	C4105.114746,596.927002 4116.007324,591.961670 4124.663574,579.356812 
M3724.449951,584.453125 
	C3746.022217,602.832458 3760.439697,625.819519 3764.953125,653.731750 
	C3767.590332,670.039062 3767.348389,686.897583 3767.444824,703.513672 
	C3767.704346,748.164734 3767.252441,792.819824 3767.491699,837.471130 
	C3767.595459,856.833984 3781.392090,871.951111 3800.104492,874.537292 
	C3819.473633,877.214233 3837.355469,866.321472 3842.828857,847.908142 
	C3844.314209,842.911560 3844.530029,837.400940 3844.542236,832.124329 
	C3844.661865,780.472473 3844.821045,728.818848 3844.467285,677.169128 
	C3844.381104,664.568542 3843.875732,651.664551 3841.150146,639.437988 
	C3823.318115,559.444946 3775.229980,505.781128 3695.845703,485.536957 
	C3617.335449,465.515625 3549.422607,488.530457 3496.020508,549.738708 
	C3464.406494,585.974304 3449.413818,629.235229 3449.889893,677.496216 
	C3450.074707,696.218323 3463.583008,711.525269 3481.646729,714.383362 
	C3504.983398,718.075806 3524.529297,702.608765 3526.883789,678.900391 
	C3527.999268,667.668640 3528.448242,656.155212 3531.359863,645.351685 
	C3553.774414,562.180603 3654.058838,527.442871 3724.449951,584.453125 
M1567.192749,906.999634 
	C1567.197144,928.990051 1567.130859,950.980957 1567.261230,972.970642 
	C1567.289795,977.784912 1568.019653,982.595032 1568.486938,988.120911 
	C1590.762207,985.597229 1611.805664,983.213074 1633.872803,980.712952 
	C1633.872803,939.000610 1633.872803,898.263977 1633.872803,855.736023 
	C1636.946289,858.061829 1638.566040,859.030334 1639.874878,860.315491 
	C1671.254517,891.129944 1734.706665,891.403015 1769.269409,856.763428 
	C1785.495239,840.501526 1795.791260,821.052673 1801.976685,799.219971 
	C1811.781006,764.613647 1811.888428,729.494080 1806.923828,694.199768 
	C1804.024780,673.590149 1798.314453,653.829590 1787.625122,635.750977 
	C1775.656494,615.508606 1758.437622,602.015442 1735.440552,596.915466 
	C1697.046509,588.401001 1663.527588,597.414734 1635.884644,626.125793 
	C1633.802734,628.288147 1632.571289,631.891113 1628.335571,631.918884 
	C1626.981201,621.796387 1625.679688,612.069702 1624.331421,601.992310 
	C1613.738159,601.992310 1604.441895,601.992310 1595.145630,601.992310 
	C1585.935913,601.992310 1576.726196,601.992310 1567.194946,601.992310 
	C1567.194946,703.965759 1567.194946,804.482605 1567.192749,906.999634 
M718.999939,870.546631 
	C762.996460,870.546326 806.992920,870.548462 850.989441,870.540894 
	C854.321716,870.540283 857.667847,870.651489 860.983826,870.399292 
	C872.222473,869.544250 881.255188,862.238281 883.995544,851.351990 
	C885.039062,847.206360 885.140625,842.799194 885.442017,838.495178 
	C887.252380,812.641052 873.267212,801.893799 849.638733,802.065796 
	C764.316162,802.686829 678.986389,802.309937 593.659302,802.309753 
	C589.770142,802.309753 585.880981,802.309692 578.912659,802.309692 
	C589.532776,793.431763 586.241028,785.356262 582.777466,777.092529 
	C578.399231,766.646057 574.354614,756.059692 570.162964,745.535034 
	C567.820496,739.653687 565.598938,733.719788 563.086792,727.911743 
	C560.924683,722.913086 557.078369,720.008118 551.447571,719.948486 
	C545.851501,719.889160 541.959106,722.598938 539.588257,727.559998 
	C538.728149,729.359741 538.055603,731.249939 537.314514,733.105652 
	C531.383240,747.958374 525.450317,762.810425 519.529419,777.667358 
	C514.457703,790.393433 514.494995,790.836853 521.713501,802.309692 
	C517.604980,802.309692 514.007446,802.309692 510.409912,802.309692 
	C424.416229,802.309937 338.422546,802.300415 252.428879,802.339478 
	C248.112518,802.341431 243.708450,802.293762 239.496460,803.079712 
	C226.551865,805.494995 218.358154,814.821472 217.655731,827.986755 
	C217.301529,834.625305 217.224609,841.355408 217.895859,847.955261 
	C219.137909,860.167358 228.851959,869.344055 241.041763,870.363831 
	C245.016434,870.696289 249.035294,870.539978 253.033951,870.540222 
	C407.689270,870.547424 562.344543,870.546936 718.999939,870.546631 
M1951.765259,956.809326 
	C1976.836548,936.301147 1992.768311,909.668152 2002.613281,879.297424 
	C2031.686890,789.606934 2060.456543,699.817932 2089.295166,610.051331 
	C2090.053223,607.691772 2090.233643,605.146606 2090.761230,602.263000 
	C2068.052979,602.263000 2046.176636,602.263000 2023.360107,602.263000 
	C2019.339600,617.293884 2015.401733,632.034363 2011.453247,646.771851 
	C2007.401001,661.896179 2003.333984,677.016479 1999.281616,692.140808 
	C1995.315674,706.942932 1991.367676,721.749817 1987.398193,736.550903 
	C1983.342285,751.674500 1979.427734,766.838440 1975.158936,781.901917 
	C1971.076904,796.306519 1968.066650,811.062317 1963.030884,825.172302 
	C1962.260864,825.114136 1961.490845,825.055908 1960.720825,824.997742 
	C1941.281250,750.769165 1921.841675,676.540527 1902.475586,602.592468 
	C1878.478271,602.592468 1855.938110,602.592468 1832.318848,602.592468 
	C1833.546509,606.866577 1834.448120,610.336487 1835.536743,613.746826 
	C1854.689209,673.736938 1873.866577,733.719177 1893.033691,793.704590 
	C1900.943848,818.459839 1908.980347,843.176270 1916.642456,868.008118 
	C1918.406616,873.724976 1921.188354,876.339539 1927.310425,875.789307 
	C1931.405273,875.421265 1935.588013,876.030396 1939.898315,876.209167 
	C1939.743042,878.419861 1939.906494,879.474854 1939.573730,880.338623 
	C1929.548462,906.362427 1912.662842,925.346069 1884.976318,933.038696 
	C1877.924561,934.998108 1870.743896,936.490234 1863.643188,938.278931 
	C1860.866943,938.978210 1858.147339,939.902588 1855.057007,940.827820 
	C1857.267822,956.953186 1858.549683,972.395508 1862.354614,988.124207 
	C1894.975098,985.140869 1924.895386,977.575256 1951.765259,956.809326 
M2504.996338,758.001160 
	C2516.570312,758.001160 2528.144043,758.001160 2539.462402,758.001160 
	C2540.354492,755.443970 2541.071289,754.232361 2541.174561,752.970520 
	C2543.752441,721.427490 2542.326904,690.304321 2529.867920,660.662537 
	C2517.811035,631.977600 2497.894287,610.942749 2468.151367,600.374329 
	C2445.380859,592.283325 2421.827881,590.840942 2398.179932,595.134277 
	C2357.713623,602.481140 2330.481201,626.974670 2314.909424,664.003784 
	C2295.821045,709.395752 2294.641846,756.221802 2310.423828,802.697632 
	C2323.630615,841.589478 2350.417725,867.765991 2390.985352,877.457886 
	C2433.248535,887.554749 2473.727539,882.179077 2511.383545,859.738281 
	C2518.453125,855.525208 2525.015381,850.461243 2532.572510,845.267090 
	C2522.893066,832.088074 2513.942383,819.901672 2504.999512,807.725769 
	C2496.269043,812.576416 2488.837646,816.985352 2481.159424,820.911804 
	C2466.041504,828.642883 2449.899658,832.335388 2432.923340,831.658203 
	C2402.030029,830.425659 2381.852051,814.243958 2373.840088,784.380432 
	C2372.290771,778.606262 2371.261230,772.678345 2370.278076,766.773743 
	C2369.869141,764.317627 2370.210205,761.736633 2370.210205,758.003113 
	C2415.178223,758.003113 2459.088135,758.003113 2504.996338,758.001160 
M1264.825439,627.072388 
	C1265.029297,656.727844 1265.278564,686.383118 1265.424194,716.038879 
	C1265.566650,745.032532 1265.670776,774.026855 1265.655762,803.020752 
	C1265.649048,815.835999 1267.552612,828.301331 1272.336182,840.173401 
	C1281.620483,863.215332 1298.188965,878.128174 1322.934326,882.240723 
	C1361.706909,888.684509 1394.944092,878.988892 1419.778564,846.796326 
	C1421.221558,844.925903 1423.041382,843.346313 1425.582153,840.696472 
	C1427.065308,853.432739 1428.354980,864.506042 1429.639526,875.536133 
	C1449.259399,875.536133 1467.474854,875.536133 1486.071533,875.536133 
	C1486.071533,784.479431 1486.071533,694.054749 1486.071533,603.867004 
	C1474.158081,601.309937 1428.555664,601.850281 1419.983521,604.664856 
	C1419.983521,608.011658 1419.978271,611.642822 1419.984497,615.274048 
	C1420.082153,672.264038 1420.231934,729.254150 1420.175415,786.243958 
	C1420.171265,790.401917 1419.692749,795.151123 1417.681763,798.604675 
	C1411.599609,809.049866 1403.588867,818.040527 1393.403931,824.768433 
	C1382.451538,832.003296 1370.496338,835.276855 1357.301636,833.076538 
	C1344.720093,830.978638 1336.704590,823.740967 1334.201416,811.340088 
	C1332.698120,803.892944 1331.980713,796.166748 1331.950684,788.561890 
	C1331.722290,730.905579 1331.751221,673.248230 1331.700806,615.591248 
	C1331.697388,611.702881 1331.700317,607.814575 1331.700317,603.468689 
	C1308.944458,603.468689 1287.532837,603.468689 1264.827026,603.468689 
	C1264.827026,611.282837 1264.827026,618.193970 1264.825439,627.072388 
M3243.953125,591.054443 
	C3251.334229,573.993103 3258.715332,556.931763 3266.553467,538.813904 
	C3247.422852,531.651611 3229.182861,524.822632 3210.197754,517.714722 
	C3207.988770,522.450439 3206.112549,526.273682 3204.402100,530.169800 
	C3175.479736,596.059509 3146.791016,662.053345 3117.488037,727.773315 
	C3111.778320,740.578796 3108.347900,753.223389 3109.332764,767.232727 
	C3109.907471,775.411255 3109.437500,783.663269 3109.437500,792.892456 
	C3159.008301,792.892456 3207.150635,792.892456 3256.366699,792.892456 
	C3256.838867,819.610596 3257.293701,845.353943 3257.766357,872.106506 
	C3279.836182,871.902466 3300.565918,872.962341 3322.202148,871.336853 
	C3322.202148,844.704590 3322.202148,819.174805 3322.202148,792.340332 
	C3336.247559,792.340332 3349.386719,792.340332 3363.003906,792.340332 
	C3363.003906,774.917969 3363.003906,758.835938 3363.003906,742.100708 
	C3349.114502,740.947388 3335.820801,742.938293 3322.029297,740.994873 
	C3321.479736,711.791260 3322.387695,683.325439 3321.203613,654.934570 
	C3301.517334,654.934570 3283.299316,654.934570 3264.074463,654.934570 
	C3261.794678,683.847046 3259.555664,712.238281 3257.340332,740.332642 
	C3245.577637,742.793640 3187.890137,742.524536 3179.219971,739.806152 
	C3200.636230,690.612244 3222.002686,641.532776 3243.953125,591.054443 
M2281.516846,866.700684 
	C2284.159180,864.878540 2286.801514,863.056335 2289.901855,860.918213 
	C2281.927979,846.564880 2274.406494,833.026123 2266.732178,819.212158 
	C2262.510498,820.996460 2259.484863,822.286865 2256.450439,823.555359 
	C2248.353027,826.940186 2239.993408,828.766174 2231.140381,828.295532 
	C2218.358154,827.616150 2210.562256,821.884460 2207.383789,809.431335 
	C2205.919434,803.692383 2205.336182,797.590942 2205.296631,791.647644 
	C2205.001953,747.335693 2204.922363,703.022156 2204.858154,658.708984 
	C2204.853516,655.554626 2205.507080,652.399292 2205.995117,647.970581 
	C2225.054199,647.970581 2243.183838,647.970581 2261.409912,647.970581 
	C2263.922607,631.678040 2266.593750,616.790955 2267.609375,601.017700 
	C2246.275879,599.701355 2226.040771,601.426086 2205.326660,599.921082 
	C2204.948242,594.699524 2204.405518,590.441589 2204.372803,586.179749 
	C2204.260498,571.519531 2204.365723,556.857727 2204.291260,542.197021 
	C2204.276611,539.333557 2203.827881,536.472412 2203.509277,532.803772 
	C2181.305420,535.510803 2159.918457,537.261475 2137.760742,541.094360 
	C2137.760742,561.250488 2137.760742,580.423706 2137.760742,600.079712 
	C2123.330566,602.022034 2109.667725,599.440369 2096.204102,601.847046 
	C2096.204102,617.706970 2096.204102,632.597412 2096.204102,648.372131 
	C2110.135986,648.671204 2123.578857,648.959778 2137.641846,649.261719 
	C2137.900391,654.847351 2138.262451,659.110046 2138.268311,663.373352 
	C2138.315918,697.360352 2138.123535,731.348694 2138.373291,765.333923 
	C2138.490723,781.305359 2138.575928,797.354675 2140.150635,813.222351 
	C2143.921875,851.222168 2166.168701,874.646790 2203.858398,880.638916 
	C2230.684814,884.903931 2256.248291,880.245911 2281.516846,866.700684 
M1119.829956,737.000000 
	C1119.881592,754.995483 1120.213989,772.995789 1119.910034,790.985229 
	C1119.572754,810.949341 1119.359985,830.959595 1117.784546,850.846008 
	C1116.308472,869.476013 1106.918823,884.231506 1091.146484,894.502869 
	C1085.861328,897.944580 1080.129272,900.704529 1074.570923,903.719849 
	C1072.011475,905.108215 1069.378540,906.360962 1066.063843,908.036682 
	C1072.109497,924.330688 1077.958984,940.095703 1083.726196,955.638916 
	C1085.952271,955.525330 1086.993774,955.693237 1087.877808,955.394714 
	C1111.116211,947.546631 1132.758423,936.773560 1151.639771,920.841919 
	C1167.985962,907.049377 1178.842407,889.800476 1183.679443,869.055786 
	C1185.937256,859.372986 1187.747925,849.396118 1188.087891,839.495056 
	C1188.818848,818.203674 1188.561523,796.874939 1188.538818,775.561646 
	C1188.452148,693.914429 1188.304321,612.267151 1188.149048,530.619995 
	C1188.142334,527.073486 1187.837524,523.527527 1187.627563,519.040527 
	C1164.641846,520.102844 1142.533081,518.554138 1119.829956,520.216553 
	C1119.829956,592.500244 1119.829956,663.750122 1119.829956,737.000000 
M2895.737549,749.362671 
	C2913.994629,755.624207 2932.858154,757.517883 2951.952393,756.081421 
	C3002.688477,752.264404 3041.260254,728.869995 3064.783691,683.205200 
	C3081.198486,651.340271 3083.572754,617.415833 3074.718750,582.978821 
	C3056.932373,513.801208 2989.425293,468.830780 2911.300781,485.176208 
	C2852.646973,497.447906 2811.900879,544.505127 2805.458740,605.694946 
	C2798.719238,669.709961 2833.984619,726.533325 2895.737549,749.362671 
M4703.662598,702.999878 
	C4703.666504,747.627869 4703.519531,792.256653 4703.744629,836.883545 
	C4703.842285,856.288757 4717.357422,871.662354 4735.842773,874.444885 
	C4754.948730,877.320862 4772.530762,867.247131 4778.393555,849.255676 
	C4780.200195,843.710754 4780.507812,837.488525 4780.517090,831.574951 
	C4780.645996,747.980774 4780.605469,664.386414 4780.603027,580.792053 
	C4780.603027,578.460815 4780.665527,576.125549 4780.555176,573.799011 
	C4779.725586,556.311707 4767.454102,541.537537 4750.932617,538.083008 
	C4733.194824,534.374207 4716.058594,542.265015 4707.873535,557.827209 
	C4704.519043,564.205200 4703.609863,570.991516 4703.624512,578.106201 
	C4703.708496,619.070618 4703.663574,660.035278 4703.662598,702.999878 
M2673.713623,705.056458 
	C2675.050049,701.647949 2676.284424,698.195251 2677.739014,694.837891 
	C2691.224365,663.712830 2710.033447,653.415527 2743.677246,658.688599 
	C2744.005615,658.740051 2744.324951,658.879333 2744.653076,658.897583 
	C2746.868652,659.021240 2749.085693,659.123291 2752.040039,659.268616 
	C2755.700439,638.196960 2759.266113,617.671265 2762.691162,597.953491 
	C2761.056885,596.496521 2760.640381,595.822449 2760.081787,595.670715 
	C2734.692871,588.773926 2711.255127,591.675293 2690.977783,609.752319 
	C2681.371826,618.315857 2674.466309,628.838745 2669.234619,640.533203 
	C2668.111084,643.044250 2666.682129,645.418579 2664.360107,649.811951 
	C2662.031494,631.759338 2660.009521,616.085876 2657.916748,599.861511 
	C2638.138184,600.184570 2619.683350,599.669373 2600.288330,600.284363 
	C2600.288330,604.987610 2600.270508,608.259888 2600.291748,611.531921 
	C2600.358398,621.855530 2600.490479,632.179016 2600.507324,642.502625 
	C2600.620850,712.110168 2600.687744,781.717712 2600.844727,851.325134 
	C2600.860840,858.519409 2601.368896,865.712708 2601.653076,873.012146 
	C2624.094971,873.012146 2645.250488,873.012146 2667.712158,873.012146 
	C2667.712158,868.463196 2667.718750,864.560425 2667.711182,860.657715 
	C2667.636963,821.357727 2667.783691,782.055359 2667.354736,742.759216 
	C2667.217773,730.229004 2668.859375,718.236694 2673.713623,705.056458 
M3446.305420,813.730896 
	C3445.528320,816.613892 3444.462646,819.453308 3444.019775,822.386780 
	C3440.318848,846.909546 3455.524658,869.333435 3478.897705,873.986389 
	C3502.579590,878.700867 3525.494629,864.925659 3531.703613,842.242859 
	C3538.131592,818.758850 3525.374268,794.722534 3502.383057,787.253540 
	C3479.015625,779.662048 3455.395996,791.839783 3446.305420,813.730896 
M4721.250488,462.117432 
	C4731.463379,467.143616 4742.051270,468.610321 4753.228516,465.915344 
	C4774.000000,460.907104 4789.265625,439.897064 4787.149414,418.995209 
	C4784.702148,394.829224 4766.425781,377.736572 4742.776367,377.497681 
	C4719.687988,377.264465 4700.458008,393.506317 4697.760254,415.806976 
	C4695.355469,435.687439 4703.177734,450.764069 4721.250488,462.117432 
z"/>
<path fill="#F6F7F8" opacity="1.000000" stroke="none" 
	d="
M119.062683,2.000000 
	C118.460876,2.515455 116.947594,3.379898 115.378906,3.496045 
	C53.492775,8.078152 5.564152,61.483028 5.619882,123.145226 
	C5.881381,412.477234 5.905995,701.809814 5.589139,991.141663 
	C5.527657,1047.283081 44.669773,1098.579468 102.820625,1109.953369 
	C107.308983,1110.831177 111.872398,1111.325439 117.200462,1111.999023 
	C79.358521,1112.000000 40.717037,1112.000000 2.100391,1112.000000 
	C2.100391,742.000000 2.100391,371.999969 2.100391,2.000000 
	C40.842308,2.000000 79.483841,2.000000 119.062683,2.000000 
z"/>
<path fill="#FDFDFE" opacity="1.000000" stroke="none" 
	d="
M4992.000000,101.062698 
	C4990.609375,96.325401 4989.736816,90.461876 4987.746094,85.006035 
	C4971.353027,40.064358 4939.465820,13.252129 4892.521484,4.266451 
	C4891.226074,4.018446 4889.945801,3.691487 4888.329102,2.700688 
	C4922.517090,2.000000 4957.034668,2.000000 4992.000000,2.000000 
	C4992.000000,34.707088 4992.000000,67.416229 4992.000000,101.062698 
z"/>
<path fill="#FCFCFC" opacity="1.000000" stroke="none" 
	d="
M4890.937500,1111.999878 
	C4897.582031,1109.878662 4905.327148,1108.211548 4912.718262,1105.559448 
	C4948.679688,1092.656372 4973.538086,1068.260620 4986.848145,1032.415283 
	C4988.903320,1026.880127 4989.514648,1020.809021 4991.396484,1014.492920 
	C4992.000000,1046.523071 4992.000000,1079.046021 4992.000000,1112.000000 
	C4958.626465,1112.000000 4925.250488,1112.000000 4890.937500,1111.999878 
z"/>
<path fill="#0CBAEE" opacity="1.000000" stroke="none" 
	d="
M348.000000,267.996887 
	C518.614441,267.996918 688.228943,267.996613 857.843384,267.999268 
	C861.508728,267.999329 865.184998,267.858124 868.837524,268.083801 
	C882.173706,268.907776 892.557800,278.885437 893.928162,292.225647 
	C894.267456,295.528625 894.164734,298.883148 894.165039,302.213959 
	C894.175171,427.841949 894.174072,553.469971 894.169250,679.097961 
	C894.169189,681.763367 894.234070,684.437256 894.053955,687.092712 
	C893.092834,701.263672 883.614136,711.219177 869.435059,712.834045 
	C866.137878,713.209595 862.781555,713.149109 859.452454,713.149292 
	C653.849060,713.162354 448.245667,713.161743 242.642288,713.151917 
	C239.645187,713.151794 236.628998,713.212463 233.654251,712.917114 
	C219.472763,711.508362 209.778412,701.866699 208.361038,687.712402 
	C208.030212,684.408752 208.158401,681.054199 208.158188,677.723022 
	C208.149857,552.761475 208.150803,427.799927 208.154419,302.838379 
	C208.154495,300.172821 208.079956,297.499756 208.244797,294.842896 
	C209.237411,278.844543 220.030457,268.195953 236.034134,268.065521 
	C262.357635,267.850922 288.684113,268.000305 315.009338,267.997131 
	C325.672882,267.995819 336.336456,267.996887 348.000000,267.996887 
M839.987915,609.000000 
	C839.929871,514.711182 839.872742,420.422333 839.794128,326.133545 
	C839.793579,325.488007 839.536194,324.828766 839.319092,324.203583 
	C839.218445,323.913910 838.936279,323.681549 838.717773,323.440063 
	C838.494507,323.193329 838.248413,322.967316 837.939148,322.659424 
	C646.572266,322.659424 455.130310,322.659424 263.835266,322.659424 
	C261.595398,332.710968 261.807220,649.670044 263.911621,657.419312 
	C275.715851,659.554871 831.782654,658.915466 839.987854,656.441406 
	C839.987854,641.519409 839.987854,626.259705 839.987915,609.000000 
z"/>
<path fill="#FDFDFE" opacity="1.000000" stroke="none" 
	d="
M4513.987793,398.000000 
	C4513.991211,370.009247 4513.786133,343.016418 4514.059570,316.028381 
	C4514.312988,291.030518 4534.993164,273.833099 4559.501465,277.765564 
	C4576.545410,280.500366 4589.343750,294.602875 4591.217773,312.859436 
	C4591.522949,315.830902 4591.414062,318.849854 4591.414062,321.846893 
	C4591.422363,439.806488 4591.484375,557.766113 4591.401855,675.725647 
	C4591.335938,770.499023 4527.161621,850.211731 4434.635742,870.711060 
	C4330.135742,893.863220 4223.645020,826.273499 4200.149902,721.883362 
	C4175.437500,612.081421 4244.460449,504.700775 4354.748535,482.812469 
	C4408.109375,472.222229 4458.011719,482.532196 4503.590820,512.625488 
	C4506.520508,514.559937 4509.502930,516.414062 4513.987793,519.282166 
	C4513.987793,478.008698 4513.987793,438.504364 4513.987793,398.000000 
M4510.513672,648.793274 
	C4497.189941,595.411133 4450.532227,557.503418 4396.532715,556.188049 
	C4322.317871,554.380310 4264.085449,619.038696 4273.594238,692.693359 
	C4283.189453,767.017334 4357.958008,814.706055 4429.379883,792.222046 
	C4488.517090,773.605347 4525.161621,711.859070 4510.513672,648.793274 
z"/>
<path fill="#FDFDFE" opacity="1.000000" stroke="none" 
	d="
M4124.282227,579.995239 
	C4116.007324,591.961670 4105.114746,596.927002 4091.373779,596.678528 
	C4075.712158,596.395325 4060.041748,596.614624 4044.375000,596.615417 
	C4041.124023,596.615540 4037.873047,596.615356 4033.422119,596.615356 
	C4033.422119,601.493896 4033.422363,605.401978 4033.422363,609.309998 
	C4033.422119,682.976562 4033.445068,756.643188 4033.367920,830.309692 
	C4033.362549,835.276184 4033.103516,840.347717 4032.093018,845.189026 
	C4028.288574,863.417419 4010.949951,876.390625 3992.565430,875.148254 
	C3972.761963,873.809875 3957.243896,858.586426 3956.065918,839.264038 
	C3955.883545,836.274353 3955.988770,833.266113 3955.988770,830.266418 
	C3955.985840,711.933167 3955.972900,593.599976 3955.991455,475.266754 
	C3956.007080,374.871216 4030.012695,290.787079 4129.325684,278.440735 
	C4136.914551,277.497253 4144.619141,277.075867 4152.267578,277.102295 
	C4174.711426,277.179871 4191.646484,293.387665 4192.020996,314.751617 
	C4192.410156,336.970428 4176.213867,353.676208 4153.216797,354.261078 
	C4121.183594,355.075867 4093.237549,365.866486 4070.177734,388.215515 
	C4047.437744,410.254639 4034.753418,437.187653 4033.670410,468.995422 
	C4033.071289,486.588684 4033.562744,504.219086 4033.562744,522.584106 
	C4036.986084,522.884521 4039.828857,523.337341 4042.673828,523.349976 
	C4058.673340,523.421082 4074.726318,524.221191 4090.662109,523.209778 
	C4121.701660,521.239563 4139.911621,554.694519 4124.282227,579.995239 
z"/>
<path fill="#FEFEFE" opacity="1.000000" stroke="none" 
	d="
M3723.885254,584.008179 
	C3654.058838,527.442871 3553.774414,562.180603 3531.359863,645.351685 
	C3528.448242,656.155212 3527.999268,667.668640 3526.883789,678.900391 
	C3524.529297,702.608765 3504.983398,718.075806 3481.646729,714.383362 
	C3463.583008,711.525269 3450.074707,696.218323 3449.889893,677.496216 
	C3449.413818,629.235229 3464.406494,585.974304 3496.020508,549.738708 
	C3549.422607,488.530457 3617.335449,465.515625 3695.845703,485.536957 
	C3775.229980,505.781128 3823.318115,559.444946 3841.150146,639.437988 
	C3843.875732,651.664551 3844.381104,664.568542 3844.467285,677.169128 
	C3844.821045,728.818848 3844.661865,780.472473 3844.542236,832.124329 
	C3844.530029,837.400940 3844.314209,842.911560 3842.828857,847.908142 
	C3837.355469,866.321472 3819.473633,877.214233 3800.104492,874.537292 
	C3781.392090,871.951111 3767.595459,856.833984 3767.491699,837.471130 
	C3767.252441,792.819824 3767.704346,748.164734 3767.444824,703.513672 
	C3767.348389,686.897583 3767.590332,670.039062 3764.953125,653.731750 
	C3760.439697,625.819519 3746.022217,602.832458 3723.885254,584.008179 
z"/>
<path fill="#0CBAED" opacity="1.000000" stroke="none" 
	d="
M1567.193848,905.999573 
	C1567.194946,804.482605 1567.194946,703.965759 1567.194946,601.992310 
	C1576.726196,601.992310 1585.935913,601.992310 1595.145630,601.992310 
	C1604.441895,601.992310 1613.738159,601.992310 1624.331421,601.992310 
	C1625.679688,612.069702 1626.981201,621.796387 1628.335571,631.918884 
	C1632.571289,631.891113 1633.802734,628.288147 1635.884644,626.125793 
	C1663.527588,597.414734 1697.046509,588.401001 1735.440552,596.915466 
	C1758.437622,602.015442 1775.656494,615.508606 1787.625122,635.750977 
	C1798.314453,653.829590 1804.024780,673.590149 1806.923828,694.199768 
	C1811.888428,729.494080 1811.781006,764.613647 1801.976685,799.219971 
	C1795.791260,821.052673 1785.495239,840.501526 1769.269409,856.763428 
	C1734.706665,891.403015 1671.254517,891.129944 1639.874878,860.315491 
	C1638.566040,859.030334 1636.946289,858.061829 1633.872803,855.736023 
	C1633.872803,898.263977 1633.872803,939.000610 1633.872803,980.712952 
	C1611.805664,983.213074 1590.762207,985.597229 1568.486938,988.120911 
	C1568.019653,982.595032 1567.289795,977.784912 1567.261230,972.970642 
	C1567.130859,950.980957 1567.197144,928.990051 1567.193848,905.999573 
M1635.448120,677.648315 
	C1634.788574,681.844055 1633.576294,686.037292 1633.556763,690.236023 
	C1633.400391,723.865356 1634.000732,757.508484 1633.187988,791.118896 
	C1632.894775,803.238892 1637.594116,811.519836 1646.317139,818.441040 
	C1650.200806,821.522522 1654.363159,824.440552 1658.803345,826.602478 
	C1687.313721,840.484131 1717.614136,829.394165 1730.297852,800.425537 
	C1732.685791,794.971558 1734.524902,789.190125 1735.884033,783.388000 
	C1741.649780,758.775269 1741.151001,733.832764 1738.947754,708.887756 
	C1737.743530,695.252502 1735.325806,681.805664 1729.114624,669.384583 
	C1720.125244,651.407104 1705.584351,642.864929 1685.455933,643.998108 
	C1676.260864,644.515808 1667.875977,647.527100 1660.182129,652.475525 
	C1650.519897,658.690063 1642.715820,666.804077 1635.448120,677.648315 
z"/>
<path fill="#0CBAEE" opacity="1.000000" stroke="none" 
	d="
M717.999878,870.546997 
	C562.344543,870.546936 407.689270,870.547424 253.033951,870.540222 
	C249.035294,870.539978 245.016434,870.696289 241.041763,870.363831 
	C228.851959,869.344055 219.137909,860.167358 217.895859,847.955261 
	C217.224609,841.355408 217.301529,834.625305 217.655731,827.986755 
	C218.358154,814.821472 226.551865,805.494995 239.496460,803.079712 
	C243.708450,802.293762 248.112518,802.341431 252.428879,802.339478 
	C338.422546,802.300415 424.416229,802.309937 510.409912,802.309692 
	C514.007446,802.309692 517.604980,802.309692 521.713501,802.309692 
	C514.494995,790.836853 514.457703,790.393433 519.529419,777.667358 
	C525.450317,762.810425 531.383240,747.958374 537.314514,733.105652 
	C538.055603,731.249939 538.728149,729.359741 539.588257,727.559998 
	C541.959106,722.598938 545.851501,719.889160 551.447571,719.948486 
	C557.078369,720.008118 560.924683,722.913086 563.086792,727.911743 
	C565.598938,733.719788 567.820496,739.653687 570.162964,745.535034 
	C574.354614,756.059692 578.399231,766.646057 582.777466,777.092529 
	C586.241028,785.356262 589.532776,793.431763 578.912659,802.309692 
	C585.880981,802.309692 589.770142,802.309753 593.659302,802.309753 
	C678.986389,802.309937 764.316162,802.686829 849.638733,802.065796 
	C873.267212,801.893799 887.252380,812.641052 885.442017,838.495178 
	C885.140625,842.799194 885.039062,847.206360 883.995544,851.351990 
	C881.255188,862.238281 872.222473,869.544250 860.983826,870.399292 
	C857.667847,870.651489 854.321716,870.540283 850.989441,870.540894 
	C806.992920,870.548462 762.996460,870.546326 717.999878,870.546997 
M563.177856,795.077087 
	C559.505371,786.298584 555.832886,777.520142 551.317871,766.727722 
	C545.700806,779.703430 540.954346,790.668030 536.189270,801.675598 
	C546.519348,801.675598 556.869385,801.675598 568.056152,801.675598 
	C566.243958,799.312439 565.074158,797.786987 563.177856,795.077087 
z"/>
<path fill="#0CBAEE" opacity="1.000000" stroke="none" 
	d="
M1951.206543,957.251099 
	C1924.895386,977.575256 1894.975098,985.140869 1862.354614,988.124207 
	C1858.549683,972.395508 1857.267822,956.953186 1855.057007,940.827820 
	C1858.147339,939.902588 1860.866943,938.978210 1863.643188,938.278931 
	C1870.743896,936.490234 1877.924561,934.998108 1884.976318,933.038696 
	C1912.662842,925.346069 1929.548462,906.362427 1939.573730,880.338623 
	C1939.906494,879.474854 1939.743042,878.419861 1939.898315,876.209167 
	C1935.588013,876.030396 1931.405273,875.421265 1927.310425,875.789307 
	C1921.188354,876.339539 1918.406616,873.724976 1916.642456,868.008118 
	C1908.980347,843.176270 1900.943848,818.459839 1893.033691,793.704590 
	C1873.866577,733.719177 1854.689209,673.736938 1835.536743,613.746826 
	C1834.448120,610.336487 1833.546509,606.866577 1832.318848,602.592468 
	C1855.938110,602.592468 1878.478271,602.592468 1902.475586,602.592468 
	C1921.841675,676.540527 1941.281250,750.769165 1960.720825,824.997742 
	C1961.490845,825.055908 1962.260864,825.114136 1963.030884,825.172302 
	C1968.066650,811.062317 1971.076904,796.306519 1975.158936,781.901917 
	C1979.427734,766.838440 1983.342285,751.674500 1987.398193,736.550903 
	C1991.367676,721.749817 1995.315674,706.942932 1999.281616,692.140808 
	C2003.333984,677.016479 2007.401001,661.896179 2011.453247,646.771851 
	C2015.401733,632.034363 2019.339600,617.293884 2023.360107,602.263000 
	C2046.176636,602.263000 2068.052979,602.263000 2090.761230,602.263000 
	C2090.233643,605.146606 2090.053223,607.691772 2089.295166,610.051331 
	C2060.456543,699.817932 2031.686890,789.606934 2002.613281,879.297424 
	C1992.768311,909.668152 1976.836548,936.301147 1951.206543,957.251099 
z"/>
<path fill="#0CBAEE" opacity="1.000000" stroke="none" 
	d="
M2503.997070,758.002136 
	C2459.088135,758.003113 2415.178223,758.003113 2370.210205,758.003113 
	C2370.210205,761.736633 2369.869141,764.317627 2370.278076,766.773743 
	C2371.261230,772.678345 2372.290771,778.606262 2373.840088,784.380432 
	C2381.852051,814.243958 2402.030029,830.425659 2432.923340,831.658203 
	C2449.899658,832.335388 2466.041504,828.642883 2481.159424,820.911804 
	C2488.837646,816.985352 2496.269043,812.576416 2504.999512,807.725769 
	C2513.942383,819.901672 2522.893066,832.088074 2532.572510,845.267090 
	C2525.015381,850.461243 2518.453125,855.525208 2511.383545,859.738281 
	C2473.727539,882.179077 2433.248535,887.554749 2390.985352,877.457886 
	C2350.417725,867.765991 2323.630615,841.589478 2310.423828,802.697632 
	C2294.641846,756.221802 2295.821045,709.395752 2314.909424,664.003784 
	C2330.481201,626.974670 2357.713623,602.481140 2398.179932,595.134277 
	C2421.827881,590.840942 2445.380859,592.283325 2468.151367,600.374329 
	C2497.894287,610.942749 2517.811035,631.977600 2529.867920,660.662537 
	C2542.326904,690.304321 2543.752441,721.427490 2541.174561,752.970520 
	C2541.071289,754.232361 2540.354492,755.443970 2539.462402,758.001160 
	C2528.144043,758.001160 2516.570312,758.001160 2503.997070,758.002136 
M2383.573975,660.732605 
	C2373.553467,677.055298 2370.256592,694.987366 2369.759033,715.120850 
	C2405.799561,714.994751 2440.739014,716.047791 2475.498047,713.753906 
	C2477.062500,696.901001 2474.175537,679.357483 2468.161133,666.823853 
	C2463.555908,657.226501 2456.905273,649.558716 2447.096191,645.099976 
	C2428.396973,636.600098 2399.694824,637.427124 2383.573975,660.732605 
z"/>
<path fill="#0CBAEE" opacity="1.000000" stroke="none" 
	d="
M1264.826172,626.088745 
	C1264.827026,618.193970 1264.827026,611.282837 1264.827026,603.468689 
	C1287.532837,603.468689 1308.944458,603.468689 1331.700317,603.468689 
	C1331.700317,607.814575 1331.697388,611.702881 1331.700806,615.591248 
	C1331.751221,673.248230 1331.722290,730.905579 1331.950684,788.561890 
	C1331.980713,796.166748 1332.698120,803.892944 1334.201416,811.340088 
	C1336.704590,823.740967 1344.720093,830.978638 1357.301636,833.076538 
	C1370.496338,835.276855 1382.451538,832.003296 1393.403931,824.768433 
	C1403.588867,818.040527 1411.599609,809.049866 1417.681763,798.604675 
	C1419.692749,795.151123 1420.171265,790.401917 1420.175415,786.243958 
	C1420.231934,729.254150 1420.082153,672.264038 1419.984497,615.274048 
	C1419.978271,611.642822 1419.983521,608.011658 1419.983521,604.664856 
	C1428.555664,601.850281 1474.158081,601.309937 1486.071533,603.867004 
	C1486.071533,694.054749 1486.071533,784.479431 1486.071533,875.536133 
	C1467.474854,875.536133 1449.259399,875.536133 1429.639526,875.536133 
	C1428.354980,864.506042 1427.065308,853.432739 1425.582153,840.696472 
	C1423.041382,843.346313 1421.221558,844.925903 1419.778564,846.796326 
	C1394.944092,878.988892 1361.706909,888.684509 1322.934326,882.240723 
	C1298.188965,878.128174 1281.620483,863.215332 1272.336182,840.173401 
	C1267.552612,828.301331 1265.649048,815.835999 1265.655762,803.020752 
	C1265.670776,774.026855 1265.566650,745.032532 1265.424194,716.038879 
	C1265.278564,686.383118 1265.029297,656.727844 1264.826172,626.088745 
z"/>
<path fill="#0CBAEE" opacity="1.000000" stroke="none" 
	d="
M3243.661133,591.753845 
	C3222.002686,641.532776 3200.636230,690.612244 3179.219971,739.806152 
	C3187.890137,742.524536 3245.577637,742.793640 3257.340332,740.332642 
	C3259.555664,712.238281 3261.794678,683.847046 3264.074463,654.934570 
	C3283.299316,654.934570 3301.517334,654.934570 3321.203613,654.934570 
	C3322.387695,683.325439 3321.479736,711.791260 3322.029297,740.994873 
	C3335.820801,742.938293 3349.114502,740.947388 3363.003906,742.100708 
	C3363.003906,758.835938 3363.003906,774.917969 3363.003906,792.340332 
	C3349.386719,792.340332 3336.247559,792.340332 3322.202148,792.340332 
	C3322.202148,819.174805 3322.202148,844.704590 3322.202148,871.336853 
	C3300.565918,872.962341 3279.836182,871.902466 3257.766357,872.106506 
	C3257.293701,845.353943 3256.838867,819.610596 3256.366699,792.892456 
	C3207.150635,792.892456 3159.008301,792.892456 3109.437500,792.892456 
	C3109.437500,783.663269 3109.907471,775.411255 3109.332764,767.232727 
	C3108.347900,753.223389 3111.778320,740.578796 3117.488037,727.773315 
	C3146.791016,662.053345 3175.479736,596.059509 3204.402100,530.169800 
	C3206.112549,526.273682 3207.988770,522.450439 3210.197754,517.714722 
	C3229.182861,524.822632 3247.422852,531.651611 3266.553467,538.813904 
	C3258.715332,556.931763 3251.334229,573.993103 3243.661133,591.753845 
z"/>
<path fill="#0CBAED" opacity="1.000000" stroke="none" 
	d="
M2280.893555,867.077209 
	C2256.248291,880.245911 2230.684814,884.903931 2203.858398,880.638916 
	C2166.168701,874.646790 2143.921875,851.222168 2140.150635,813.222351 
	C2138.575928,797.354675 2138.490723,781.305359 2138.373291,765.333923 
	C2138.123535,731.348694 2138.315918,697.360352 2138.268311,663.373352 
	C2138.262451,659.110046 2137.900391,654.847351 2137.641846,649.261719 
	C2123.578857,648.959778 2110.135986,648.671204 2096.204102,648.372131 
	C2096.204102,632.597412 2096.204102,617.706970 2096.204102,601.847046 
	C2109.667725,599.440369 2123.330566,602.022034 2137.760742,600.079712 
	C2137.760742,580.423706 2137.760742,561.250488 2137.760742,541.094360 
	C2159.918457,537.261475 2181.305420,535.510803 2203.509277,532.803772 
	C2203.827881,536.472412 2204.276611,539.333557 2204.291260,542.197021 
	C2204.365723,556.857727 2204.260498,571.519531 2204.372803,586.179749 
	C2204.405518,590.441589 2204.948242,594.699524 2205.326660,599.921082 
	C2226.040771,601.426086 2246.275879,599.701355 2267.609375,601.017700 
	C2266.593750,616.790955 2263.922607,631.678040 2261.409912,647.970581 
	C2243.183838,647.970581 2225.054199,647.970581 2205.995117,647.970581 
	C2205.507080,652.399292 2204.853516,655.554626 2204.858154,658.708984 
	C2204.922363,703.022156 2205.001953,747.335693 2205.296631,791.647644 
	C2205.336182,797.590942 2205.919434,803.692383 2207.383789,809.431335 
	C2210.562256,821.884460 2218.358154,827.616150 2231.140381,828.295532 
	C2239.993408,828.766174 2248.353027,826.940186 2256.450439,823.555359 
	C2259.484863,822.286865 2262.510498,820.996460 2266.732178,819.212158 
	C2274.406494,833.026123 2281.927979,846.564880 2289.901855,860.918213 
	C2286.801514,863.056335 2284.159180,864.878540 2280.893555,867.077209 
z"/>
<path fill="#0BBAEE" opacity="1.000000" stroke="none" 
	d="
M1119.829956,736.000000 
	C1119.829956,663.750122 1119.829956,592.500244 1119.829956,520.216553 
	C1142.533081,518.554138 1164.641846,520.102844 1187.627563,519.040527 
	C1187.837524,523.527527 1188.142334,527.073486 1188.149048,530.619995 
	C1188.304321,612.267151 1188.452148,693.914429 1188.538818,775.561646 
	C1188.561523,796.874939 1188.818848,818.203674 1188.087891,839.495056 
	C1187.747925,849.396118 1185.937256,859.372986 1183.679443,869.055786 
	C1178.842407,889.800476 1167.985962,907.049377 1151.639771,920.841919 
	C1132.758423,936.773560 1111.116211,947.546631 1087.877808,955.394714 
	C1086.993774,955.693237 1085.952271,955.525330 1083.726196,955.638916 
	C1077.958984,940.095703 1072.109497,924.330688 1066.063843,908.036682 
	C1069.378540,906.360962 1072.011475,905.108215 1074.570923,903.719849 
	C1080.129272,900.704529 1085.861328,897.944580 1091.146484,894.502869 
	C1106.918823,884.231506 1116.308472,869.476013 1117.784546,850.846008 
	C1119.359985,830.959595 1119.572754,810.949341 1119.910034,790.985229 
	C1120.213989,772.995789 1119.881592,754.995483 1119.829956,736.000000 
z"/>
<path fill="#0CB9ED" opacity="1.000000" stroke="none" 
	d="
M2895.002930,749.078430 
	C2833.984619,726.533325 2798.719238,669.709961 2805.458740,605.694946 
	C2811.900879,544.505127 2852.646973,497.447906 2911.300781,485.176208 
	C2989.425293,468.830780 3056.932373,513.801208 3074.718750,582.978821 
	C3083.572754,617.415833 3081.198486,651.340271 3064.783691,683.205200 
	C3041.260254,728.869995 3002.688477,752.264404 2951.952393,756.081421 
	C2932.858154,757.517883 2913.994629,755.624207 2895.002930,749.078430 
M2981.469727,718.721985 
	C3012.810059,706.057007 3031.924072,682.848511 3040.330322,650.424744 
	C3043.531982,638.075317 3044.479248,625.501587 3043.817871,612.796082 
	C3040.864746,556.065979 3003.316650,516.320007 2950.113281,513.031250 
	C2910.074463,510.556244 2876.955322,524.713745 2856.217041,559.922058 
	C2833.945068,597.734131 2833.769043,637.488220 2854.335205,676.188293 
	C2868.970703,703.728271 2893.074219,719.355469 2923.971436,724.385376 
	C2943.124023,727.503357 2961.766113,725.664734 2981.469727,718.721985 
z"/>
<path fill="#FFFFFF" opacity="1.000000" stroke="none" 
	d="
M4703.662598,701.999878 
	C4703.663574,660.035278 4703.708496,619.070618 4703.624512,578.106201 
	C4703.609863,570.991516 4704.519043,564.205200 4707.873535,557.827209 
	C4716.058594,542.265015 4733.194824,534.374207 4750.932617,538.083008 
	C4767.454102,541.537537 4779.725586,556.311707 4780.555176,573.799011 
	C4780.665527,576.125549 4780.603027,578.460815 4780.603027,580.792053 
	C4780.605469,664.386414 4780.645996,747.980774 4780.517090,831.574951 
	C4780.507812,837.488525 4780.200195,843.710754 4778.393555,849.255676 
	C4772.530762,867.247131 4754.948730,877.320862 4735.842773,874.444885 
	C4717.357422,871.662354 4703.842285,856.288757 4703.744629,836.883545 
	C4703.519531,792.256653 4703.666504,747.627869 4703.662598,701.999878 
z"/>
<path fill="#0CB9EC" opacity="1.000000" stroke="none" 
	d="
M2673.451660,705.803223 
	C2668.859375,718.236694 2667.217773,730.229004 2667.354736,742.759216 
	C2667.783691,782.055359 2667.636963,821.357727 2667.711182,860.657715 
	C2667.718750,864.560425 2667.712158,868.463196 2667.712158,873.012146 
	C2645.250488,873.012146 2624.094971,873.012146 2601.653076,873.012146 
	C2601.368896,865.712708 2600.860840,858.519409 2600.844727,851.325134 
	C2600.687744,781.717712 2600.620850,712.110168 2600.507324,642.502625 
	C2600.490479,632.179016 2600.358398,621.855530 2600.291748,611.531921 
	C2600.270508,608.259888 2600.288330,604.987610 2600.288330,600.284363 
	C2619.683350,599.669373 2638.138184,600.184570 2657.916748,599.861511 
	C2660.009521,616.085876 2662.031494,631.759338 2664.360107,649.811951 
	C2666.682129,645.418579 2668.111084,643.044250 2669.234619,640.533203 
	C2674.466309,628.838745 2681.371826,618.315857 2690.977783,609.752319 
	C2711.255127,591.675293 2734.692871,588.773926 2760.081787,595.670715 
	C2760.640381,595.822449 2761.056885,596.496521 2762.691162,597.953491 
	C2759.266113,617.671265 2755.700439,638.196960 2752.040039,659.268616 
	C2749.085693,659.123291 2746.868652,659.021240 2744.653076,658.897583 
	C2744.324951,658.879333 2744.005615,658.740051 2743.677246,658.688599 
	C2710.033447,653.415527 2691.224365,663.712830 2677.739014,694.837891 
	C2676.284424,698.195251 2675.050049,701.647949 2673.451660,705.803223 
z"/>
<path fill="#0CBAED" opacity="1.000000" stroke="none" 
	d="
M3446.602051,813.023193 
	C3455.395996,791.839783 3479.015625,779.662048 3502.383057,787.253540 
	C3525.374268,794.722534 3538.131592,818.758850 3531.703613,842.242859 
	C3525.494629,864.925659 3502.579590,878.700867 3478.897705,873.986389 
	C3455.524658,869.333435 3440.318848,846.909546 3444.019775,822.386780 
	C3444.462646,819.453308 3445.528320,816.613892 3446.602051,813.023193 
z"/>
<path fill="#A1C518" opacity="1.000000" stroke="none" 
	d="
M4720.589844,461.767517 
	C4703.177734,450.764069 4695.355469,435.687439 4697.760254,415.806976 
	C4700.458008,393.506317 4719.687988,377.264465 4742.776367,377.497681 
	C4766.425781,377.736572 4784.702148,394.829224 4787.149414,418.995209 
	C4789.265625,439.897064 4774.000000,460.907104 4753.228516,465.915344 
	C4742.051270,468.610321 4731.463379,467.143616 4720.589844,461.767517 
z"/>
<path fill="#45566B" opacity="1.000000" stroke="none" 
	d="
M839.987915,610.000000 
	C839.987854,626.259705 839.987854,641.519409 839.987854,656.441406 
	C831.782654,658.915466 275.715851,659.554871 263.911621,657.419312 
	C261.807220,649.670044 261.595398,332.710968 263.835266,322.659424 
	C455.130310,322.659424 646.572266,322.659424 837.939148,322.659424 
	C838.248413,322.967316 838.494507,323.193329 838.717773,323.440063 
	C838.936279,323.681549 839.218445,323.913910 839.319092,324.203583 
	C839.536194,324.828766 839.793579,325.488007 839.794128,326.133545 
	C839.872742,420.422333 839.929871,514.711182 839.987915,610.000000 
M669.435059,427.876160 
	C648.937317,386.804321 615.409485,362.892731 570.278137,358.534546 
	C517.058044,353.395172 476.013916,375.534058 448.186218,421.373077 
	C445.630005,425.583771 442.789368,430.037140 442.386047,435.791321 
	C449.580872,430.335083 455.882690,424.894165 462.811890,420.426361 
	C482.970886,407.428162 505.198578,399.879883 528.979248,397.157318 
	C558.302795,393.800140 587.268250,394.797302 615.780762,403.752747 
	C634.131592,409.516541 650.400208,418.775513 666.203186,431.080688 
	C667.957336,432.708740 669.711487,434.336792 671.465698,435.964813 
	C671.878052,435.629395 672.290466,435.293945 672.702881,434.958527 
	C671.692932,433.096710 670.682983,431.234894 669.435059,427.876160 
M445.724731,531.161682 
	C444.524048,530.472839 443.323395,529.783936 442.122711,529.095093 
	C442.518066,530.147156 442.913422,531.199158 443.593842,533.701782 
	C465.475098,584.223145 520.505859,615.649170 581.402588,604.971985 
	C626.478027,597.068787 666.129211,557.295471 670.770142,530.141602 
	C613.545532,583.543091 501.532196,582.145447 445.724731,531.161682 
M459.922668,599.919983 
	C457.738495,600.694275 455.462097,601.276733 453.385742,602.275208 
	C443.002716,607.268494 437.887421,618.857239 441.157349,629.720520 
	C444.660065,641.357056 455.351685,647.900513 468.233276,646.291565 
	C478.529144,645.005615 487.179718,635.237671 487.703735,624.306274 
	C488.395966,609.864563 478.265625,600.326111 459.922668,599.919983 
M659.809875,334.600922 
	C656.356934,333.615021 652.942871,331.976410 649.443604,331.767975 
	C639.693542,331.187347 633.018738,336.428192 630.551270,345.849213 
	C628.537231,353.539001 632.126038,361.729706 639.470703,366.205475 
	C646.315186,370.376526 656.354980,368.932770 662.287354,362.924469 
	C668.488220,356.644196 669.537048,347.770325 664.832825,340.173157 
	C663.798584,338.502930 662.308960,337.114807 659.809875,334.600922 
M442.118500,388.586060 
	C444.689209,388.353119 447.464417,388.662476 449.792023,387.784790 
	C456.566254,385.230347 459.620300,379.037994 458.182678,371.831818 
	C456.985413,365.830414 451.963989,361.822174 445.414246,361.639709 
	C437.998535,361.433075 432.799255,365.526489 431.291351,372.758636 
	C430.014221,378.883942 432.719147,383.314545 442.118500,388.586060 
M673.108948,527.177917 
	C673.108948,527.177917 673.075134,527.029785 673.108948,527.177917 
z"/>
<path fill="#46566B" opacity="1.000000" stroke="none" 
	d="
M4510.751953,649.593994 
	C4525.161621,711.859070 4488.517090,773.605347 4429.379883,792.222046 
	C4357.958008,814.706055 4283.189453,767.017334 4273.594238,692.693359 
	C4264.085449,619.038696 4322.317871,554.380310 4396.532715,556.188049 
	C4450.532227,557.503418 4497.189941,595.411133 4510.751953,649.593994 
z"/>
<path fill="#45566B" opacity="1.000000" stroke="none" 
	d="
M1635.870117,676.967163 
	C1642.715820,666.804077 1650.519897,658.690063 1660.182129,652.475525 
	C1667.875977,647.527100 1676.260864,644.515808 1685.455933,643.998108 
	C1705.584351,642.864929 1720.125244,651.407104 1729.114624,669.384583 
	C1735.325806,681.805664 1737.743530,695.252502 1738.947754,708.887756 
	C1741.151001,733.832764 1741.649780,758.775269 1735.884033,783.388000 
	C1734.524902,789.190125 1732.685791,794.971558 1730.297852,800.425537 
	C1717.614136,829.394165 1687.313721,840.484131 1658.803345,826.602478 
	C1654.363159,824.440552 1650.200806,821.522522 1646.317139,818.441040 
	C1637.594116,811.519836 1632.894775,803.238892 1633.187988,791.118896 
	C1634.000732,757.508484 1633.400391,723.865356 1633.556763,690.236023 
	C1633.576294,686.037292 1634.788574,681.844055 1635.870117,676.967163 
z"/>
<path fill="#43596F" opacity="1.000000" stroke="none" 
	d="
M563.541138,795.669312 
	C565.074158,797.786987 566.243958,799.312439 568.056152,801.675598 
	C556.869385,801.675598 546.519348,801.675598 536.189270,801.675598 
	C540.954346,790.668030 545.700806,779.703430 551.317871,766.727722 
	C555.832886,777.520142 559.505371,786.298584 563.541138,795.669312 
z"/>
<path fill="#44576D" opacity="1.000000" stroke="none" 
	d="
M2383.976562,660.130005 
	C2399.694824,637.427124 2428.396973,636.600098 2447.096191,645.099976 
	C2456.905273,649.558716 2463.555908,657.226501 2468.161133,666.823853 
	C2474.175537,679.357483 2477.062500,696.901001 2475.498047,713.753906 
	C2440.739014,716.047791 2405.799561,714.994751 2369.759033,715.120850 
	C2370.256592,694.987366 2373.553467,677.055298 2383.976562,660.130005 
z"/>
<path fill="#44576C" opacity="1.000000" stroke="none" 
	d="
M2980.752441,719.026978 
	C2961.766113,725.664734 2943.124023,727.503357 2923.971436,724.385376 
	C2893.074219,719.355469 2868.970703,703.728271 2854.335205,676.188293 
	C2833.769043,637.488220 2833.945068,597.734131 2856.217041,559.922058 
	C2876.955322,524.713745 2910.074463,510.556244 2950.113281,513.031250 
	C3003.316650,516.320007 3040.864746,556.065979 3043.817871,612.796082 
	C3044.479248,625.501587 3043.531982,638.075317 3040.330322,650.424744 
	C3031.924072,682.848511 3012.810059,706.057007 2980.752441,719.026978 
M2933.913818,635.669189 
	C2936.146240,637.919617 2938.945068,639.833740 2940.514648,642.477722 
	C2947.992188,655.074097 2955.371094,667.742432 2962.288330,680.651367 
	C2965.297607,686.267029 2968.762695,689.259338 2975.515869,688.675903 
	C2982.457764,688.076111 2989.493652,688.637634 2996.483643,688.480225 
	C2998.891357,688.426025 3001.284424,687.738037 3005.147949,687.096497 
	C2992.486328,667.206116 2980.615967,648.558167 2968.540039,629.587830 
	C2973.217773,626.840881 2976.697510,624.934082 2980.040039,622.810730 
	C2993.597656,614.197815 3000.153564,601.813965 2999.176758,585.781311 
	C2998.142090,568.798584 2989.470947,556.998474 2973.625732,550.914368 
	C2967.771729,548.666748 2961.517090,546.481995 2955.355469,546.194214 
	C2934.777588,545.233276 2914.159180,545.136108 2893.555176,544.763489 
	C2893.007324,544.753601 2892.447998,545.378357 2890.666504,546.436035 
	C2891.415283,593.108643 2889.738037,640.516479 2891.852539,688.521790 
	C2903.308594,689.397644 2913.726807,689.748352 2925.189453,688.205933 
	C2925.189453,683.774292 2925.186035,680.177612 2925.190186,676.580933 
	C2925.202881,665.258301 2925.324463,653.934448 2925.184570,642.613708 
	C2925.122803,637.615845 2926.978760,635.043518 2933.913818,635.669189 
z"/>
<path fill="#FAFBFB" opacity="1.000000" stroke="none" 
	d="
M445.945801,532.018921 
	C501.532196,582.145447 613.545532,583.543091 670.770142,530.141602 
	C666.129211,557.295471 626.478027,597.068787 581.402588,604.971985 
	C520.505859,615.649170 465.475098,584.223145 444.111176,532.925171 
	C445.067596,532.105408 445.506683,532.062195 445.945801,532.018921 
z"/>
<path fill="#FBFBFB" opacity="1.000000" stroke="none" 
	d="
M665.739990,430.028259 
	C650.400208,418.775513 634.131592,409.516541 615.780762,403.752747 
	C587.268250,394.797302 558.302795,393.800140 528.979248,397.157318 
	C505.198578,399.879883 482.970886,407.428162 462.811890,420.426361 
	C455.882690,424.894165 449.580872,430.335083 442.386047,435.791321 
	C442.789368,430.037140 445.630005,425.583771 448.186218,421.373077 
	C476.013916,375.534058 517.058044,353.395172 570.278137,358.534546 
	C615.409485,362.892731 648.937317,386.804321 668.570557,428.786804 
	C667.050720,429.807678 666.395386,429.917969 665.739990,430.028259 
z"/>
<path fill="#FAFBFB" opacity="1.000000" stroke="none" 
	d="
M460.739319,599.803101 
	C478.265625,600.326111 488.395966,609.864563 487.703735,624.306274 
	C487.179718,635.237671 478.529144,645.005615 468.233276,646.291565 
	C455.351685,647.900513 444.660065,641.357056 441.157349,629.720520 
	C437.887421,618.857239 443.002716,607.268494 453.385742,602.275208 
	C455.462097,601.276733 457.738495,600.694275 460.739319,599.803101 
z"/>
<path fill="#FAFBFB" opacity="1.000000" stroke="none" 
	d="
M660.419434,335.098816 
	C662.308960,337.114807 663.798584,338.502930 664.832825,340.173157 
	C669.537048,347.770325 668.488220,356.644196 662.287354,362.924469 
	C656.354980,368.932770 646.315186,370.376526 639.470703,366.205475 
	C632.126038,361.729706 628.537231,353.539001 630.551270,345.849213 
	C633.018738,336.428192 639.693542,331.187347 649.443604,331.767975 
	C652.942871,331.976410 656.356934,333.615021 660.419434,335.098816 
z"/>
<path fill="#FAFBFB" opacity="1.000000" stroke="none" 
	d="
M441.418915,388.393738 
	C432.719147,383.314545 430.014221,378.883942 431.291351,372.758636 
	C432.799255,365.526489 437.998535,361.433075 445.414246,361.639709 
	C451.963989,361.822174 456.985413,365.830414 458.182678,371.831818 
	C459.620300,379.037994 456.566254,385.230347 449.792023,387.784790 
	C447.464417,388.662476 444.689209,388.353119 441.418915,388.393738 
z"/>
<path fill="#F6F7F8" opacity="1.000000" stroke="none" 
	d="
M665.971558,430.554474 
	C666.395386,429.917969 667.050720,429.807678 668.689514,429.535248 
	C670.682983,431.234894 671.692932,433.096710 672.702881,434.958527 
	C672.290466,435.293945 671.878052,435.629395 671.465698,435.964813 
	C669.711487,434.336792 667.957336,432.708740 665.971558,430.554474 
z"/>
<path fill="#F6F7F8" opacity="1.000000" stroke="none" 
	d="
M445.835266,531.590332 
	C445.506683,532.062195 445.067596,532.105408 443.968628,532.199951 
	C442.913422,531.199158 442.518066,530.147156 442.122711,529.095093 
	C443.323395,529.783936 444.524048,530.472839 445.835266,531.590332 
z"/>
<path fill="#FAFBFB" opacity="1.000000" stroke="none" 
	d="
M673.092041,527.103882 
	C673.075134,527.029785 673.108948,527.177917 673.092041,527.103882 
z"/>
<path fill="#0DB8EB" opacity="1.000000" stroke="none" 
	d="
M2933.059082,635.616516 
	C2926.978760,635.043518 2925.122803,637.615845 2925.184570,642.613708 
	C2925.324463,653.934448 2925.202881,665.258301 2925.190186,676.580933 
	C2925.186035,680.177612 2925.189453,683.774292 2925.189453,688.205933 
	C2913.726807,689.748352 2903.308594,689.397644 2891.852539,688.521790 
	C2889.738037,640.516479 2891.415283,593.108643 2890.666504,546.436035 
	C2892.447998,545.378357 2893.007324,544.753601 2893.555176,544.763489 
	C2914.159180,545.136108 2934.777588,545.233276 2955.355469,546.194214 
	C2961.517090,546.481995 2967.771729,548.666748 2973.625732,550.914368 
	C2989.470947,556.998474 2998.142090,568.798584 2999.176758,585.781311 
	C3000.153564,601.813965 2993.597656,614.197815 2980.040039,622.810730 
	C2976.697510,624.934082 2973.217773,626.840881 2968.540039,629.587830 
	C2980.615967,648.558167 2992.486328,667.206116 3005.147949,687.096497 
	C3001.284424,687.738037 2998.891357,688.426025 2996.483643,688.480225 
	C2989.493652,688.637634 2982.457764,688.076111 2975.515869,688.675903 
	C2968.762695,689.259338 2965.297607,686.267029 2962.288330,680.651367 
	C2955.371094,667.742432 2947.992188,655.074097 2940.514648,642.477722 
	C2938.945068,639.833740 2936.146240,637.919617 2933.059082,635.616516 
M2942.327148,570.072693 
	C2936.798584,570.072693 2931.270020,570.072693 2925.278076,570.072693 
	C2925.278076,583.277161 2925.278076,595.051331 2925.278076,607.238770 
	C2935.239014,608.361267 2944.467285,609.090271 2953.427979,605.750183 
	C2961.050537,602.908813 2964.540039,597.206238 2964.494629,588.621521 
	C2964.449219,580.029663 2960.912598,574.833618 2952.830078,572.061218 
	C2950.027344,571.099976 2947.006104,570.775940 2942.327148,570.072693 
z"/>
<path fill="#43596F" opacity="1.000000" stroke="none" 
	d="
M2943.206055,570.116821 
	C2947.006104,570.775940 2950.027344,571.099976 2952.830078,572.061218 
	C2960.912598,574.833618 2964.449219,580.029663 2964.494629,588.621521 
	C2964.540039,597.206238 2961.050537,602.908813 2953.427979,605.750183 
	C2944.467285,609.090271 2935.239014,608.361267 2925.278076,607.238770 
	C2925.278076,595.051331 2925.278076,583.277161 2925.278076,570.072693 
	C2931.270020,570.072693 2936.798584,570.072693 2943.206055,570.116821 
z"/>
</svg>